<?xml version="1.0" encoding="utf-8"?>
<!-- Generator: Adobe Illustrator 16.0.0, SVG Export Plug-In . SVG Version: 6.00 Build 0)  -->
<!DOCTYPE svg PUBLIC "-//W3C//DTD SVG 1.1//EN" "http://www.w3.org/Graphics/SVG/1.1/DTD/svg11.dtd">
<svg version="1.1" id="Layer_1" xmlns="http://www.w3.org/2000/svg" xmlns:xlink="http://www.w3.org/1999/xlink" x="0px" y="0px"
	 width="654px" height="783px" viewBox="181.5 27.5 654 783" enable-background="new 181.5 27.5 654 783" xml:space="preserve">
<g>
	<path fill="#FFFFFF" d="M477.396,76.169l9.766-35.209C440.746,154.271,282.37-28.418,284.721,159.604l1.032,11.223
		C309.362,40.788,440.156,183.591,477.396,76.169z"/>
	<path fill="#FFFFFF" d="M802.972,739.86h-19.464V510.337h-0.017V378.872L603.496,482.91V378.872L423.78,482.746V378.855
		l-97.148,56.14l-6.604-220.873h6.562c1.368,0,2.49-1.098,2.507-2.466V196.87c0-1.368-1.139-2.49-2.507-2.49h-7.144l-0.426-14.156
		c-0.041-1.368-1.155-2.466-2.507-2.466h-64.111c-1.352,0-2.491,1.098-2.531,2.466l-0.426,14.164h-6.693
		c-1.343,0-2.482,1.122-2.482,2.49v14.787c0,1.368,1.139,2.466,2.482,2.466h6.111l-8.061,270.475l-0.213,0.14v7.373l-0.491,16.99
		h0.491v1.237h-0.024v229.531h-19.521c-2.72,0-4.932,2.195-4.932,4.932v28.517c0,2.72,2.212,4.932,4.932,4.932h581.919
		c2.72,0,4.932-2.212,4.915-4.932v-28.517C807.879,742.056,805.691,739.86,802.972,739.86z M250.503,490.25l162.734-94.265v18.841
		L250.503,508.92V490.25z M416.399,660.333H313.426v-79.43h102.974V660.333z M563.486,660.333H460.529v-79.43h102.957V660.333z
		 M593.232,414.826L430.498,508.92v-18.67l162.734-94.265V414.826z M710.574,660.333H607.617v-79.43h102.957V660.333z
		 M773.243,414.826L610.501,508.92v-18.67l162.742-94.265V414.826z"/>
</g>
</svg>
