<?xml version="1.0" encoding="utf-8"?>
<!-- Generator: Adobe Illustrator 16.0.0, SVG Export Plug-In . SVG Version: 6.00 Build 0)  -->
<!DOCTYPE svg PUBLIC "-//W3C//DTD SVG 1.1//EN" "http://www.w3.org/Graphics/SVG/1.1/DTD/svg11.dtd">
<svg version="1.1" id="Layer_1" xmlns="http://www.w3.org/2000/svg" xmlns:xlink="http://www.w3.org/1999/xlink" x="0px" y="0px"
	 width="730.5px" height="774px" viewBox="0 142.5 730.5 774" enable-background="new 0 142.5 730.5 774" xml:space="preserve">
<g>
	<path fill="#FFFFFF" d="M523.563,190.293L363,163.259l-160.563,27.034L158.2,411.477v40.141l22.118,220.365L363,735.88
		l182.682-63.897L567.8,451.617v-40.141L523.563,190.293z M256.504,635.118h-13.107v-8.191h-8.192v-13.107h8.192v-8.192h13.107
		V635.118z M295.826,650.684h-13.107v-8.192h-8.192v-13.107h8.192v-8.191h13.107V650.684z M295.826,592.52h-13.107v-8.191h-8.192
		v-13.107h8.192v-8.192h13.107V592.52z M341.701,680.174h-13.107v-8.191h-8.192v-13.107h8.192v-8.191h13.107V680.174z
		 M341.701,622.83h-13.107v-8.191h-8.192v-13.107h8.192v-8.192h13.107V622.83z M341.701,564.667h-13.107v-8.191h-8.192v-13.107
		h8.192v-8.192h13.107V564.667z M335.147,454.895L199.16,438.511v-31.949l127.795,23.757L335.147,454.895z M529.298,439.33
		l-135.987,16.384l8.191-23.757L529.298,408.2V439.33z"/>
	<path fill="#FFFFFF" d="M522.744,694.101c-2.458,37.684-71.271,67.994-155.648,67.994c-86.016,0-155.647-31.13-155.647-70.452
		c-109.773,26.215-184.32,73.729-184.32,90.112c0,60.621,152.371,108.954,339.968,108.954s339.969-49.152,339.969-108.954
		C707.064,773.563,631.697,723.592,522.744,694.101z"/>
</g>
</svg>
