<?xml version="1.0" encoding="utf-8"?>
<!-- Generator: Adobe Illustrator 16.0.0, SVG Export Plug-In . SVG Version: 6.00 Build 0)  -->
<!DOCTYPE svg PUBLIC "-//W3C//DTD SVG 1.1//EN" "http://www.w3.org/Graphics/SVG/1.1/DTD/svg11.dtd">
<svg version="1.1" id="Layer_1" xmlns="http://www.w3.org/2000/svg" xmlns:xlink="http://www.w3.org/1999/xlink" x="0px" y="0px"
	 width="511px" height="517px" viewBox="258.5 145.5 511 517" enable-background="new 258.5 145.5 511 517" xml:space="preserve">
<g display="none">
	<g display="inline">
		<rect x="102.4" fill="none" width="819.2" height="819.2"/>
		<line fill="none" x1="102.4" y1="793.6" x2="921.6" y2="793.6"/>
		<line fill="none" x1="102.4" y1="768" x2="921.6" y2="768"/>
		<line fill="none" x1="102.4" y1="742.4" x2="921.6" y2="742.4"/>
		<line fill="none" x1="102.4" y1="716.8" x2="921.6" y2="716.8"/>
		<line fill="none" x1="102.4" y1="691.2" x2="921.6" y2="691.2"/>
		<line fill="none" x1="102.4" y1="665.6" x2="921.6" y2="665.6"/>
		<line fill="none" x1="102.4" y1="640" x2="921.6" y2="640"/>
		<line fill="none" x1="102.4" y1="614.4" x2="921.6" y2="614.4"/>
		<line fill="none" x1="102.4" y1="588.8" x2="921.6" y2="588.8"/>
		<line fill="none" x1="102.4" y1="563.2" x2="921.6" y2="563.2"/>
		<line fill="none" x1="102.4" y1="537.6" x2="921.6" y2="537.6"/>
		<line fill="none" x1="102.4" y1="512" x2="921.6" y2="512"/>
		<line fill="none" x1="102.4" y1="486.4" x2="921.6" y2="486.4"/>
		<line fill="none" x1="102.4" y1="460.8" x2="921.6" y2="460.8"/>
		<line fill="none" x1="102.4" y1="435.2" x2="921.6" y2="435.2"/>
		<line fill="none" x1="102.4" y1="409.6" x2="921.6" y2="409.6"/>
		<line fill="none" x1="102.4" y1="384" x2="921.6" y2="384"/>
		<line fill="none" x1="102.4" y1="358.4" x2="921.6" y2="358.4"/>
		<line fill="none" x1="102.4" y1="332.8" x2="921.6" y2="332.8"/>
		<line fill="none" x1="102.4" y1="307.2" x2="921.6" y2="307.2"/>
		<line fill="none" x1="102.4" y1="281.6" x2="921.6" y2="281.6"/>
		<line fill="none" x1="102.4" y1="256" x2="921.6" y2="256"/>
		<line fill="none" x1="102.4" y1="230.4" x2="921.6" y2="230.4"/>
		<line fill="none" x1="102.4" y1="204.8" x2="921.6" y2="204.8"/>
		<line fill="none" x1="102.4" y1="179.2" x2="921.6" y2="179.2"/>
		<line fill="none" x1="102.4" y1="153.6" x2="921.6" y2="153.6"/>
		<line fill="none" x1="102.4" y1="128" x2="921.6" y2="128"/>
		<line fill="none" x1="102.4" y1="102.4" x2="921.6" y2="102.4"/>
		<line fill="none" x1="102.4" y1="76.8" x2="921.6" y2="76.8"/>
		<line fill="none" x1="102.4" y1="51.2" x2="921.6" y2="51.2"/>
		<line fill="none" x1="102.4" y1="25.6" x2="921.6" y2="25.6"/>
		<line fill="none" x1="896" y1="0" x2="896" y2="819.2"/>
		<line fill="none" x1="870.4" y1="0" x2="870.4" y2="819.2"/>
		<line fill="none" x1="844.8" y1="0" x2="844.8" y2="819.2"/>
		<line fill="none" x1="819.2" y1="0" x2="819.2" y2="819.2"/>
		<line fill="none" x1="793.6" y1="0" x2="793.6" y2="819.2"/>
		<line fill="none" x1="768" y1="0" x2="768" y2="819.2"/>
		<line fill="none" x1="742.4" y1="0" x2="742.4" y2="819.2"/>
		<line fill="none" x1="716.8" y1="0" x2="716.8" y2="819.2"/>
		<line fill="none" x1="691.2" y1="0" x2="691.2" y2="819.2"/>
		<line fill="none" x1="665.6" y1="0" x2="665.6" y2="819.2"/>
		<line fill="none" x1="640" y1="0" x2="640" y2="819.2"/>
		<line fill="none" x1="614.4" y1="0" x2="614.4" y2="819.2"/>
		<line fill="none" x1="588.8" y1="0" x2="588.8" y2="819.2"/>
		<line fill="none" x1="563.2" y1="0" x2="563.2" y2="819.2"/>
		<line fill="none" x1="537.6" y1="0" x2="537.6" y2="819.2"/>
		<line fill="none" x1="512" y1="0" x2="512" y2="819.2"/>
		<line fill="none" x1="486.4" y1="0" x2="486.4" y2="819.2"/>
		<line fill="none" x1="460.8" y1="0" x2="460.8" y2="819.2"/>
		<line fill="none" x1="435.2" y1="0" x2="435.2" y2="819.2"/>
		<line fill="none" x1="409.6" y1="0" x2="409.6" y2="819.2"/>
		<line fill="none" x1="384" y1="0" x2="384" y2="819.2"/>
		<line fill="none" x1="358.4" y1="0" x2="358.4" y2="819.2"/>
		<line fill="none" x1="332.8" y1="0" x2="332.8" y2="819.2"/>
		<line fill="none" x1="307.2" y1="0" x2="307.2" y2="819.2"/>
		<line fill="none" x1="281.6" y1="0" x2="281.6" y2="819.2"/>
		<line fill="none" x1="256" y1="0" x2="256" y2="819.2"/>
		<line fill="none" x1="230.4" y1="0" x2="230.4" y2="819.2"/>
		<line fill="none" x1="204.8" y1="0" x2="204.8" y2="819.2"/>
		<line fill="none" x1="179.2" y1="0" x2="179.2" y2="819.2"/>
		<line fill="none" x1="153.6" y1="0" x2="153.6" y2="819.2"/>
		<line fill="none" x1="128" y1="0" x2="128" y2="819.2"/>
	</g>
</g>
<g>
	
		<rect x="716.948" y="289.216" transform="matrix(-0.1953 -0.9807 0.9807 -0.1953 553.4192 1088.3376)" fill="#FFFFFF" width="12.479" height="55.838"/>
	
		<rect x="695.533" y="372.331" transform="matrix(-0.9776 -0.2105 0.2105 -0.9776 1351.0103 900.9419)" fill="#FFFFFF" width="55.84" height="12.48"/>
	
		<rect x="601.268" y="173.419" transform="matrix(-0.9807 -0.1953 0.1953 -0.9807 1163.99 517.4551)" fill="#FFFFFF" width="12.48" height="55.837"/>
	
		<rect x="518.066" y="195.121" transform="matrix(-0.2105 -0.9776 0.9776 -0.2105 464.0617 777.4987)" fill="#FFFFFF" width="55.84" height="12.48"/>
	<g>
		<polygon fill="#FFFFFF" points="575.84,418.56 683.04,435.52 606.24,358.88 655.52,262.08 558.88,311.36 482.08,234.56 
			499.04,341.76 402.4,391.04 485.44,404.16 306.24,583.52 334.72,612 513.6,433.28 526.56,515.2 		"/>
		<path fill="#FFFFFF" d="M278.4,611.36c-7.68,7.68-8.64,20.159-1.44,28.159c7.84,8.801,21.28,9.12,29.44,0.961L324,622.88
			l-28.64-28.64L278.4,611.36z"/>
	</g>
</g>
</svg>
