<?xml version="1.0" encoding="utf-8"?>
<!-- Generator: Adobe Illustrator 16.0.0, SVG Export Plug-In . SVG Version: 6.00 Build 0)  -->
<!DOCTYPE svg PUBLIC "-//W3C//DTD SVG 1.1//EN" "http://www.w3.org/Graphics/SVG/1.1/DTD/svg11.dtd">
<svg version="1.1" id="Layer_1" xmlns="http://www.w3.org/2000/svg" xmlns:xlink="http://www.w3.org/1999/xlink" x="0px" y="0px"
	 width="600px" height="600px" viewBox="212 212 600 600" enable-background="new 212 212 600 600" xml:space="preserve">
<path fill="#FFFFFF" d="M425.165,260.505H274.432c-4.916,0-8.192,3.277-8.192,8.192v486.605c0,4.914,3.276,8.191,8.192,8.191
	h151.552c4.915,0,8.191-3.277,8.191-8.191V268.698C433.356,263.782,430.08,260.505,425.165,260.505z"/>
<path fill="#FFFFFF" d="M590.644,268.698v486.605c0,4.914,3.276,8.191,8.191,8.191h150.733c4.915,0,8.191-3.277,8.191-8.191V268.698
	c0-4.916-3.276-8.192-8.191-8.192H598.835C593.92,260.505,590.644,263.782,590.644,268.698z"/>
</svg>
