<?xml version="1.0" encoding="utf-8"?>
<!-- Generator: Adobe Illustrator 16.0.0, SVG Export Plug-In . SVG Version: 6.00 Build 0)  -->
<!DOCTYPE svg PUBLIC "-//W3C//DTD SVG 1.1//EN" "http://www.w3.org/Graphics/SVG/1.1/DTD/svg11.dtd">
<svg version="1.1" id="Layer_1" xmlns="http://www.w3.org/2000/svg" xmlns:xlink="http://www.w3.org/1999/xlink" x="0px" y="0px"
	 width="1000px" height="600px" viewBox="12 212 1000 600" enable-background="new 12 212 1000 600" xml:space="preserve">
<path fill="#FFFFFF" d="M548.579,319.323v385.025c0,4.914-4.915,8.191-9.011,5.734L154.544,517.568
	c-4.915-2.457-4.915-9.01,0-11.468l385.024-192.512C543.664,311.95,548.579,314.408,548.579,319.323z"/>
<path fill="#FFFFFF" d="M959.579,319.323v385.025c0,4.914-4.915,8.191-9.011,5.734L565.544,517.568
	c-4.915-2.457-4.915-9.01,0-11.468l385.024-192.512C954.664,311.95,959.579,314.408,959.579,319.323z"/>
<path fill="#FFFFFF" d="M79.997,711.066h2.458c13.926,0,24.576-10.65,24.576-24.576V337.51c0-13.926-10.649-24.576-24.576-24.576
	h-2.458c-13.926,0-24.576,10.65-24.576,24.576v348.16C55.421,699.598,66.07,711.066,79.997,711.066z"/>
</svg>
