<?xml version="1.0" encoding="utf-8"?>
<!-- Generator: Adobe Illustrator 16.0.0, SVG Export Plug-In . SVG Version: 6.00 Build 0)  -->
<!DOCTYPE svg PUBLIC "-//W3C//DTD SVG 1.1//EN" "http://www.w3.org/Graphics/SVG/1.1/DTD/svg11.dtd">
<svg version="1.1" id="Layer_1" xmlns="http://www.w3.org/2000/svg" xmlns:xlink="http://www.w3.org/1999/xlink" x="0px" y="0px"
	 width="600px" height="800px" viewBox="212 112 600 800" enable-background="new 212 112 600 800" xml:space="preserve">
<path fill="#FFFFFF" d="M771.687,286.706L771.687,286.706V165.464c0-4.915-4.915-9.011-9.83-8.192l-369.46,78.643
	c-4.096,0.819-6.553,4.096-6.553,8.192l0.818,193.331l0,0v245.76c-18.842-1.638-39.321,1.639-59.801,9.831
	c-56.525,22.938-87.655,78.643-68.813,123.699c18.842,45.056,79.463,63.078,135.987,40.141
	c44.237-18.022,72.909-55.706,74.547-92.57l0,0V420.235l221.185-48.333v208.896c-18.842-1.639-39.321,1.638-59.802,9.83
	c-56.524,21.299-87.654,76.186-68.812,122.061c18.842,45.057,79.462,63.078,135.986,40.141
	c45.876-18.841,75.367-58.982,74.548-97.484l0,0V286.706z"/>
</svg>
