<?xml version="1.0" encoding="utf-8"?>
<!-- Generator: Adobe Illustrator 16.0.0, SVG Export Plug-In . SVG Version: 6.00 Build 0)  -->
<!DOCTYPE svg PUBLIC "-//W3C//DTD SVG 1.1//EN" "http://www.w3.org/Graphics/SVG/1.1/DTD/svg11.dtd">
<svg version="1.1" id="Layer_1" xmlns="http://www.w3.org/2000/svg" xmlns:xlink="http://www.w3.org/1999/xlink" x="0px" y="0px"
	 width="1000px" height="600px" viewBox="12 212 1000 600" enable-background="new 12 212 1000 600" xml:space="preserve">
<path fill="#FFFFFF" d="M466.421,704.678V319.653c0-4.914,4.915-8.191,9.011-5.734l385.024,192.514c4.915,2.457,4.915,9.01,0,11.468
	L475.432,710.412C471.336,712.05,466.421,709.593,466.421,704.678z"/>
<path fill="#FFFFFF" d="M55.421,704.678V319.653c0-4.914,4.915-8.191,9.011-5.734l385.024,192.514c4.915,2.457,4.915,9.01,0,11.468
	L64.432,710.412C60.336,712.05,55.421,709.593,55.421,704.678z"/>
<path fill="#FFFFFF" d="M935.004,312.934h-2.459c-13.926,0-24.575,10.65-24.575,24.576v348.98c0,13.926,10.649,24.576,24.575,24.576
	h2.458c13.927,0,24.576-10.65,24.576-24.576v-348.16C959.579,324.403,948.93,312.934,935.004,312.934z"/>
</svg>
