<?xml version="1.0" encoding="utf-8"?>
<!-- Generator: Adobe Illustrator 16.0.0, SVG Export Plug-In . SVG Version: 6.00 Build 0)  -->
<!DOCTYPE svg PUBLIC "-//W3C//DTD SVG 1.1//EN" "http://www.w3.org/Graphics/SVG/1.1/DTD/svg11.dtd">
<svg version="1.1" id="Layer_1" xmlns="http://www.w3.org/2000/svg" xmlns:xlink="http://www.w3.org/1999/xlink" x="0px" y="0px"
	 width="807px" height="811.5px" viewBox="113.5 0 807 811.5" enable-background="new 113.5 0 807 811.5" xml:space="preserve">
<title>sport_039-archery-bow-arrow-hunt</title>
<desc>Created with Sketch.</desc>
<g>
	<g transform="translate(-429.000000, -189.000000)">
		<g transform="translate(425.000000, 185.000000)">
			
				<g transform="translate(16.000000, 16.000000) rotate(45.000000) translate(-16.000000, -16.000000) translate(0.500000, 9.500000)">
				<path fill="#FFFFFF" d="M242.369-47.007c16.703-9.798,34.003-22.528,59.693-43.227c6.476-5.218,29.476-23.973,32.489-26.416
					c13.37-10.84,24.151-19.394,34.944-27.654c94.828-72.56,178.271-109.336,280.703-109.336s185.875,36.776,280.703,109.336
					c10.794,8.26,21.574,16.814,34.944,27.654c3.013,2.443,26.013,21.199,32.489,26.416c25.689,20.699,42.989,33.429,59.693,43.227
					c45.276,26.557,82.848,26.557,116.238-6.833c6.665-6.665,6.665-17.471,0-24.136s-17.47-6.665-24.135,0
					c-20.945,20.945-41.728,20.945-74.833,1.527c-23.169-13.591-133.727-102.671-123.654-94.964
					c-100.237-76.7-190.229-116.362-301.446-116.362c-111.216,0-201.208,39.662-301.446,116.362
					c10.073-7.708-100.484,81.373-123.654,94.964c-33.104,19.418-53.888,19.418-74.832-1.527c-6.665-6.665-17.471-6.665-24.136,0
					s-6.665,17.471,0,24.136C159.521-20.449,197.094-20.449,242.369-47.007z"/>
				<path fill="#FFFFFF" d="M562.536,148.276c8.43,4.215,18.682,0.798,22.898-7.633c4.215-8.43,0.798-18.682-7.632-22.897
					L214.098-64.105c-8.43-4.215-18.682-0.799-22.897,7.632c-4.215,8.43-0.798,18.682,7.633,22.897L562.536,148.276z"/>
				<path fill="#FFFFFF" d="M722.688,117.701c-8.431,4.214-11.848,14.466-7.633,22.897c4.215,8.43,14.467,11.847,22.897,7.632
					l363.612-181.806c8.43-4.215,11.847-14.467,7.632-22.897c-4.216-8.431-14.467-11.847-22.897-7.633L722.688,117.701z"/>
			</g>
			<g transform="translate(6.000000, 5.000000)">
				<path fill="#FFFFFF" d="M880.468,62.268c6.665-6.665,6.665-17.471,0-24.136c-6.665-6.665-17.472-6.665-24.136,0L276.065,618.398
					c-6.665,6.665-6.665,17.472,0,24.137c6.665,6.664,17.471,6.664,24.136,0L880.468,62.268z"/>
				<path fill="#FFFFFF" d="M334.334,506.002c6.665-6.665,6.665-17.472,0-24.137s-17.471-6.665-24.136,0L173.665,618.398
					c-6.665,6.665-6.665,17.472,0,24.137c6.665,6.664,17.471,6.664,24.136,0L334.334,506.002z"/>
				<path fill="#FFFFFF" d="M436.734,608.401c6.665-6.665,6.665-17.471,0-24.136s-17.471-6.665-24.136,0L276.065,720.799
					c-6.665,6.665-6.665,17.471,0,24.136s17.471,6.665,24.136,0L436.734,608.401z"/>
				<path fill="#FFFFFF" d="M407.6,511v85.334c0,9.425,7.641,17.066,17.066,17.066s17.066-7.642,17.066-17.066v-102.4
					c0-9.426-7.641-17.066-17.066-17.066H322.267c-9.426,0-17.067,7.641-17.067,17.066S312.841,511,322.267,511H407.6z"/>
				<path fill="#FFFFFF" d="M271.066,647.533v85.334c0,9.426,7.641,17.066,17.066,17.066s17.066-7.641,17.066-17.066v-102.4
					c0-9.426-7.641-17.066-17.066-17.066h-102.4c-9.426,0-17.067,7.641-17.067,17.066s7.641,17.066,17.067,17.066H271.066z"/>
				<path fill="#FFFFFF" d="M873.797,66.391c8.941-2.981,13.774-12.646,10.794-21.588c-2.981-8.942-12.646-13.774-21.588-10.794
					l-102.4,34.133c-8.942,2.98-13.774,12.646-10.794,21.588s12.646,13.774,21.588,10.794L873.797,66.391z"/>
				<path fill="#FFFFFF" d="M819.744,148.813c-2.808,8.998,2.21,18.568,11.207,21.376c8.998,2.808,18.568-2.21,21.377-11.208
					l32.363-103.697c2.808-8.998-2.21-18.568-11.207-21.376c-8.998-2.808-18.568,2.209-21.377,11.207L819.744,148.813z"/>
			</g>
		</g>
	</g>
</g>
<text transform="matrix(1 0 0 1 102.4063 1331.1875)" font-family="'HelveticaNeue-Bold'" font-size="170.6667">Created by Pham Thi Dieu Linh</text>
<text transform="matrix(1 0 0 1 102.4063 1501.875)" font-family="'HelveticaNeue-Bold'" font-size="170.6667">from the Noun Project</text>
</svg>
