<?xml version="1.0" encoding="utf-8"?>
<!-- Generator: Adobe Illustrator 16.0.0, SVG Export Plug-In . SVG Version: 6.00 Build 0)  -->
<!DOCTYPE svg PUBLIC "-//W3C//DTD SVG 1.1//EN" "http://www.w3.org/Graphics/SVG/1.1/DTD/svg11.dtd">
<svg version="1.1" id="Layer_1" xmlns="http://www.w3.org/2000/svg" xmlns:xlink="http://www.w3.org/1999/xlink" x="0px" y="0px"
	 width="809px" height="724px" viewBox="114.5 52.5 809 724" enable-background="new 114.5 52.5 809 724" xml:space="preserve">
<g>
	<path fill="#FFFFFF" d="M733.799,613.352c2.236-2.499-30.098-35.25-50.93-55.779c8.232-5.677,15.703-8.93,15.703-8.93
		s75.744-3.187,103.621,73.466c19.98,54.928,78.446,108.602,78.446,108.602s-54.042-42.377-116.785-49.341
		c-62.733-6.971-97.591-45.317-102.194-91.373c-0.844-8.446,3.391-16.032,9.257-22.323
		C693.526,585.966,731.529,615.899,733.799,613.352z"/>
	<path fill="#FFFFFF" d="M267.469,199.541c4.063-4.555,7.938-9.167,11.69-13.82c114.992,87.146,277.979,213.427,317.186,258.072
		c0,0-116.285-182.402-295.723-287.686c4.391-6.767,8.511-13.566,12.288-20.374c90.775,48.898,131.555,74.072,170.418,111.452
		c12.574,12.1,35.422,42.369,61.309,78.93l85.156-12.239L828.015,490.75l-82.813-46.006l-64.438-11.052l-35.938,40.272
		c23.191,35.242,39.198,60.129,39.198,60.129L672.31,547.25c-3.392-3.285-5.693-5.48-6.275-5.996L482.501,377.446
		c-3.572-3.162-9.069-2.834-12.239,0.721c-3.195,3.563-2.875,9.052,0.688,12.23L654.5,554.173c0.581,0.516,3.015,2.556,6.66,5.546
		l-0.197,0.221l-13.853,15.499c0,0-26.468-12.935-64.356-31.94l-35.774,40.092l18.293,62.742l55.1,77.062L422.158,546.521
		l2.031-85.173c-42.123-22.863-78.282-43.803-95.076-56.729c-55.042-42.369-61.005-68.034-119.922-152.683
		C229.368,237.527,249.151,220.078,267.469,199.541z"/>
	<path fill="#FFFFFF" d="M276.341,117.752c-3.736,6.218-7.75,12.427-11.993,18.587c-32.719-16.392-67.248-29.917-103.31-39.199
		c0,0,34.841,25.764,84.976,63.537c-3.088,3.769-6.267,7.504-9.56,11.199c-15.573,17.433-32.203,32.703-49.234,45.752
		c-23.781-40.641-41.336-84.788-43.86-128.819C187.417,86.311,233.267,98.738,276.341,117.752z"/>
</g>
</svg>
