<?xml version="1.0" encoding="utf-8"?>
<!-- Generator: Adobe Illustrator 16.0.0, SVG Export Plug-In . SVG Version: 6.00 Build 0)  -->
<!DOCTYPE svg PUBLIC "-//W3C//DTD SVG 1.1//EN" "http://www.w3.org/Graphics/SVG/1.1/DTD/svg11.dtd">
<svg version="1.1" id="Layer_1" xmlns="http://www.w3.org/2000/svg" xmlns:xlink="http://www.w3.org/1999/xlink" x="0px" y="0px"
	 width="1025px" height="362px" viewBox="-22 179.5 1025 362" enable-background="new -22 179.5 1025 362" xml:space="preserve">
<g>
	<path fill="#3273DC" d="M190.841,365.934c0.003,3.354,45.94,6.158,75.155,7.538c-2.34,9.722-5.731,17.132-5.731,17.132
		s-54.273,52.932-126.197,14.462C82.527,377.501,3.166,376.561,3.166,376.561s68.527-4.519,119.895-41.214
		c51.364-36.683,102.917-31.396,137.085-0.175c6.266,5.726,8.177,14.201,8.008,22.801
		C239.109,359.444,190.831,362.521,190.841,365.934z"/>
	<path fill="#3273DC" d="M814.294,362.793c0.015,6.104,0.208,12.125,0.52,18.094c-143.794,11.866-349.448,26.627-408.442,19.554
		c0,0,208.34,58.2,412.229,16.824c1.247,7.97,2.718,15.782,4.449,23.373c-100.231,24.181-147.4,32.655-201.289,30.763
		c-17.44-0.616-54.657-7.904-98.337-17.85l-55.239,65.955l-265.661,0.607l92.372-21.02l55.359-34.783l-0.121-53.975
		c-40.792-10.763-69.323-18.608-69.323-18.608l-0.06-17.617c4.718,0.183,7.897,0.281,8.674,0.276l246.003-0.533
		c4.771-0.029,8.646-3.942,8.633-8.706c0-4.786-3.901-8.659-8.676-8.646l-245.994,0.567c-0.778,0.003-3.951,0.108-8.661,0.315
		l-0.001-0.297l-0.031-20.787c0,0,28.343-8.035,69.241-19.174l-0.123-53.732l-55.502-34.508l-92.466-20.603l265.655-0.604
		l55.341,64.778c46.626-11.093,87.528-19.637,108.661-21.222c69.267-5.191,90.838,9.939,191.211,33.644
		C817.31,309.076,814.226,335.273,814.294,362.793z"/>
	<path fill="#3273DC" d="M862.281,429.616c-1.368-7.123-2.524-14.427-3.477-21.845c35.305-9.635,70.043-22.611,103.091-39.771
		c0,0-43.14,4.071-105.685,9.41c-0.216-4.868-0.343-9.771-0.356-14.721c-0.041-23.376,2.149-45.846,6.121-66.931
		c44.836,14.389,87.375,35.543,118.645,66.645C949.482,393.672,907.047,415.023,862.281,429.616z"/>
</g>
</svg>
