<?xml version="1.0" encoding="utf-8"?>
<!-- Generator: Adobe Illustrator 16.0.0, SVG Export Plug-In . SVG Version: 6.00 Build 0)  -->
<!DOCTYPE svg PUBLIC "-//W3C//DTD SVG 1.1//EN" "http://www.w3.org/Graphics/SVG/1.1/DTD/svg11.dtd">
<svg version="1.1" id="Layer_1" xmlns="http://www.w3.org/2000/svg" xmlns:xlink="http://www.w3.org/1999/xlink" x="0px" y="0px"
	 width="726px" height="716px" viewBox="150.5 55.5 726 716" enable-background="new 150.5 55.5 726 716" xml:space="preserve">
<path fill="#FFFFFF" d="M791.264,524.846c-23.08-16.223-50.024-23.377-76.459-22.226c-25.265,1.1-49.811-8.544-67.692-26.426
	L446.821,275.902c-17.788-17.789-27.457-42.18-26.435-67.316c1.602-39.361-15.272-78.956-48.663-104.338
	c-28.906-21.973-64.191-29.316-97.169-23.414c-12.572,2.25-16.263,18.551-5.953,26.089l52.68,38.515
	c8.964,6.553,12.705,18.146,9.209,28.686c-0.089,0.268-0.18,0.534-0.27,0.801c-7.918,23.382-22.848,43.804-42.728,58.442
	c-0.19,0.141-0.382,0.28-0.573,0.42c-9.005,6.583-21.233,6.589-30.237,0.005l-52.679-38.515
	c-10.311-7.537-24.722,0.924-23.053,13.587c4.378,33.214,22.079,64.609,51.786,85.489c23.08,16.222,50.023,23.376,76.459,22.226
	c25.265-1.099,49.811,8.544,67.692,26.426L577.18,543.297c17.788,17.788,27.456,42.179,26.434,67.315
	c-1.604,39.361,15.271,78.956,48.662,104.338c28.906,21.974,64.191,29.317,97.169,23.413c12.572-2.25,16.265-18.55,5.953-26.089
	l-52.68-38.515c-8.975-6.562-12.711-18.175-9.197-28.723c0.085-0.256,0.171-0.51,0.258-0.765
	c7.918-23.383,22.848-43.803,42.726-58.442c0.191-0.141,0.383-0.28,0.574-0.421c9.005-6.582,21.232-6.588,30.237-0.004
	l52.679,38.514c10.311,7.538,24.723-0.925,23.054-13.585C838.671,577.12,820.971,545.726,791.264,524.846z"/>
</svg>
